<?xml version="1.0" encoding="UTF-8"?>
<svg version="1.1" xmlns="http://www.w3.org/2000/svg" width="500" height="500">
<path d="M0 0 C7.34836608 5.81627431 13.02966035 14.88649426 14.56640625 24.19140625 C15.04320487 31.72997896 13.77842653 37.60538707 10.7109375 44.4765625 C10.38661453 46.28350475 10.09765486 48.09699626 9.8359375 49.9140625 C8.26501813 59.17488553 3.21033718 65.05117262 -4.2890625 70.4765625 C-12.12834636 75.99008372 -22.10109989 75.2231063 -31.2890625 74.4765625 C-32.14113281 74.25484375 -32.99320313 74.033125 -33.87109375 73.8046875 C-37.49314088 73.31316576 -40.41296782 74.60223118 -43.7265625 75.9140625 C-44.43103516 76.18847168 -45.13550781 76.46288086 -45.86132812 76.74560547 C-68.31447786 85.78839466 -89.23768019 102.61841035 -104.2890625 121.4765625 C-97.42387767 119.36510531 -90.97041872 117.04004334 -84.640625 113.625 C-75.59796724 109.2088183 -64.49809071 108.19296679 -54.72265625 110.6328125 C-44.04158919 114.3360396 -36.15720362 120.68374181 -30.8515625 130.7265625 C-26.15963319 140.57330204 -27.80824647 151.32673954 -31.23046875 161.25 C-32.25081438 164.35998337 -32.90509371 167.39442628 -33.5390625 170.6015625 C-35.6272446 179.25260263 -41.08599546 186.34170283 -48.2890625 191.4765625 C-48.9490625 191.4765625 -49.6090625 191.4765625 -50.2890625 191.4765625 C-50.2890625 192.1365625 -50.2890625 192.7965625 -50.2890625 193.4765625 C-52.21516126 195.07359423 -54.1475299 196.56402179 -56.1640625 198.0390625 C-61.48136784 202.00843167 -66.43766516 206.19841451 -71.265625 210.76171875 C-73.2890625 212.4765625 -73.2890625 212.4765625 -76.2890625 213.4765625 C-76.98571681 214.79447562 -77.64540035 216.13197288 -78.2890625 217.4765625 C-79.78827156 219.38954192 -81.31250569 221.28299307 -82.8515625 223.1640625 C-90.44266272 232.7077182 -99.64660774 245.86373306 -98.2890625 258.4765625 C-96.51645336 262.6748473 -94.37646711 264.53017935 -90.2890625 266.4765625 C-65.46104102 272.465231 -39.02542177 258.82277207 -18.2421875 246.69921875 C-12.39410493 243.10754954 -6.97104163 239.04231522 -1.61425781 234.76391602 C0.83639006 232.82185734 2.71502725 231.47519925 5.7109375 230.4765625 C5.7109375 229.8165625 5.7109375 229.1565625 5.7109375 228.4765625 C6.3709375 228.4765625 7.0309375 228.4765625 7.7109375 228.4765625 C7.7109375 227.8165625 7.7109375 227.1565625 7.7109375 226.4765625 C8.3709375 226.4765625 9.0309375 226.4765625 9.7109375 226.4765625 C10.0409375 225.4865625 10.3709375 224.4965625 10.7109375 223.4765625 C11.3709375 223.4765625 12.0309375 223.4765625 12.7109375 223.4765625 C12.7109375 222.8165625 12.7109375 222.1565625 12.7109375 221.4765625 C13.3709375 221.4765625 14.0309375 221.4765625 14.7109375 221.4765625 C14.7109375 220.8165625 14.7109375 220.1565625 14.7109375 219.4765625 C15.3709375 219.4765625 16.0309375 219.4765625 16.7109375 219.4765625 C16.94296875 218.95320312 17.175 218.42984375 17.4140625 217.890625 C19.1450873 214.66841619 21.3029097 211.79440012 23.4609375 208.8515625 C33.68787466 194.672346 37.99026943 182.07804922 41.84179688 165.04492188 C44.81566594 152.6007363 48.90704465 141.98083712 59.7109375 134.4765625 C67.26535661 130.16405978 75.23078477 129.69431361 83.6484375 131.1640625 C93.64591588 134.02048489 100.59822862 139.93098358 106.09765625 148.68359375 C112.42088399 161.70722422 108.24826859 178.06838124 105.0234375 191.4140625 C104.65006196 193.01067616 104.27767451 194.60752119 103.90625 196.20458984 C103.019249 199.99097081 102.1077099 203.77077876 101.18218994 207.5479126 C100.77239689 209.22503353 100.370598 210.90410385 99.97021484 212.58349609 C94.43709037 235.62299243 83.1140661 255.12587466 68.92089844 273.8671875 C67.84615845 275.29670445 66.7962124 276.74478694 65.75 278.1953125 C64.4528723 279.99230892 63.09109401 281.74251971 61.7109375 283.4765625 C61.0509375 283.4765625 60.3909375 283.4765625 59.7109375 283.4765625 C59.46472656 284.04729492 59.21851563 284.61802734 58.96484375 285.20605469 C57.50194753 287.8549906 55.78448431 289.66204796 53.6484375 291.8046875 C52.85179687 292.60390625 52.05515625 293.403125 51.234375 294.2265625 C50.40164063 295.0515625 49.56890625 295.8765625 48.7109375 296.7265625 C47.87820313 297.56703125 47.04546875 298.4075 46.1875 299.2734375 C44.99253906 300.46453125 44.99253906 300.46453125 43.7734375 301.6796875 C43.04253906 302.40833008 42.31164062 303.13697266 41.55859375 303.88769531 C39.7109375 305.4765625 39.7109375 305.4765625 37.7109375 305.4765625 C37.7109375 306.1365625 37.7109375 306.7965625 37.7109375 307.4765625 C35.39564072 309.39938453 33.07277109 311.19980779 30.6484375 312.9765625 C29.92615967 313.51120117 29.20388184 314.04583984 28.4597168 314.59667969 C21.92973466 319.39154619 15.26573707 323.95949224 8.45751953 328.34912109 C6.81551451 329.40905668 5.18280557 330.48335399 3.55078125 331.55859375 C-21.69256207 347.73858751 -54.94398584 361.55336572 -85.2890625 362.4765625 C-85.93810547 362.49702637 -86.58714844 362.51749023 -87.25585938 362.53857422 C-117.8907833 363.37119457 -143.1456965 355.6357359 -166.2890625 335.4765625 C-184.69692213 315.62359987 -188.31746764 293.86818395 -187.46679688 267.77978516 C-187.06658741 260.3418263 -185.4958336 253.56833368 -183.2890625 246.4765625 C-182.90266602 245.23181152 -182.51626953 243.98706055 -182.11816406 242.70458984 C-179.2716568 233.59647658 -176.3102744 224.52811334 -173.2890625 215.4765625 C-173.86261475 215.31365723 -174.43616699 215.15075195 -175.02709961 214.98291016 C-187.35966352 211.22156138 -198.5879781 201.60617825 -205.03515625 190.45703125 C-213.46685167 174.05869796 -213.91203015 158.14577736 -209.2890625 140.4765625 C-208.19909411 137.22984814 -206.97219805 134.09107749 -205.65625 130.9296875 C-204.6516322 128.39230998 -203.78028802 125.93663386 -202.984375 123.3359375 C-197.88507266 106.68605408 -190.28760978 92.00685085 -179.2890625 78.4765625 C-178.18341591 77.01935086 -177.07918078 75.56106689 -175.9765625 74.1015625 C-165.87089581 61.21215892 -155.11452671 49.05173393 -142.22265625 38.875 C-139.77927271 36.87734688 -137.47017437 34.81735401 -135.14453125 32.6875 C-110.96514737 11.10834645 -79.31073647 -4.48370673 -47.2890625 -9.5234375 C-46.14695313 -9.70648438 -45.00484375 -9.88953125 -43.828125 -10.078125 C-27.50244949 -12.13234907 -13.71214956 -9.12583333 0 0 Z " fill="#F493BE" transform="translate(300.2890625,73.5234375)"/>
<path d="M0 0 C0.66 0 1.32 0 2 0 C0.08706613 24.38990678 -14.43259472 46.43239366 -28.79003906 65.390625 C-29.86477905 66.82014195 -30.9147251 68.26822444 -31.9609375 69.71875 C-33.2580652 71.51574642 -34.61984349 73.26595721 -36 75 C-36.66 75 -37.32 75 -38 75 C-38.36931641 75.85609863 -38.36931641 75.85609863 -38.74609375 76.72949219 C-40.20898997 79.3784281 -41.92645319 81.18548546 -44.0625 83.328125 C-44.85914063 84.12734375 -45.65578125 84.9265625 -46.4765625 85.75 C-47.30929687 86.575 -48.14203125 87.4 -49 88.25 C-50.24910156 89.51070312 -50.24910156 89.51070312 -51.5234375 90.796875 C-52.32007813 91.5909375 -53.11671875 92.385 -53.9375 93.203125 C-54.66839844 93.93176758 -55.39929688 94.66041016 -56.15234375 95.41113281 C-58 97 -58 97 -60 97 C-60 97.66 -60 98.32 -60 99 C-62.31529678 100.92282203 -64.63816641 102.72324529 -67.0625 104.5 C-67.78477783 105.03463867 -68.50705566 105.56927734 -69.2512207 106.12011719 C-75.78120284 110.91498369 -82.44520043 115.48292974 -89.25341797 119.87255859 C-90.89542299 120.93249418 -92.52813193 122.00679149 -94.16015625 123.08203125 C-119.40349957 139.26202501 -152.65492334 153.07680322 -183 154 C-183.64904297 154.02046387 -184.29808594 154.04092773 -184.96679688 154.06201172 C-208.82005261 154.71031449 -231.99223665 150.85363896 -251.8125 136.875 C-252.39306152 136.46757568 -252.97362305 136.06015137 -253.57177734 135.64038086 C-258.17678751 132.23096829 -260.94970193 128.67160958 -262 123 C-262.99 123 -263.98 123 -265 123 C-265.33 121.68 -265.66 120.36 -266 119 C-266.66 119 -267.32 119 -268 119 C-268.495 116.525 -268.495 116.525 -269 114 C-269.66 114 -270.32 114 -271 114 C-274.05515377 111.62920068 -275.1467978 108.71566067 -276.5625 105.1875 C-276.97628906 104.17042969 -277.39007813 103.15335937 -277.81640625 102.10546875 C-284.56417709 84.4009215 -286.56943312 60.81043087 -279 43 C-278.67 43 -278.34 43 -278 43 C-277.96132813 44.77890625 -277.96132813 44.77890625 -277.921875 46.59375 C-277.39131205 63.66403607 -274.95811239 85.6396259 -262 98 C-261.67 98.99 -261.34 99.98 -261 101 C-259.5351307 102.45074215 -259.5351307 102.45074215 -257.75 103.8125 C-255.33944431 105.78565647 -253.67210705 107.42808246 -251.75 109.9375 C-248.12664892 114.47559872 -242.96017535 117.13576831 -238 120 C-237.21625 120.45503906 -236.4325 120.91007812 -235.625 121.37890625 C-228.15497379 125.40413997 -220.0991633 127.60978154 -212 130 C-211.01 130.33 -210.02 130.66 -209 131 C-189.76334716 133.01574241 -169.04799103 133.90454282 -150.51171875 127.78125 C-148.50739157 127.15782008 -146.4696709 126.64208696 -144.42578125 126.1640625 C-138.96985172 124.81836406 -133.75477276 122.84929558 -128.5 120.875 C-127.44425781 120.47901611 -126.38851562 120.08303223 -125.30078125 119.67504883 C-116.54324311 116.32763721 -108.27124585 112.38939979 -100 108 C-98.56565701 107.250438 -97.12809984 106.50699659 -95.6875 105.76953125 C-95.03136719 105.43155518 -94.37523437 105.0935791 -93.69921875 104.74536133 C-92 104 -92 104 -90 104 C-90 103.34 -90 102.68 -90 102 C-87.62952154 100.45546184 -85.26764258 99.02271838 -82.8125 97.625 C-78.24213669 95.00086796 -74.12370789 92.30198182 -70 89 C-69.34 89 -68.68 89 -68 89 C-68 88.34 -68 87.68 -68 87 C-66.68 86.67 -65.36 86.34 -64 86 C-64 85.34 -64 84.68 -64 84 C-62.3203125 82.4921875 -62.3203125 82.4921875 -60.125 80.875 C-59.40570313 80.33617187 -58.68640625 79.79734375 -57.9453125 79.2421875 C-56 78 -56 78 -54 78 C-53.67 77.01 -53.34 76.02 -53 75 C-51.64453125 73.703125 -51.64453125 73.703125 -49.8125 72.25 C-38.84767261 62.89360882 -29.75954866 51.79858082 -21.328125 40.16796875 C-19 37 -19 37 -17 35 C-16.33077002 33.33436095 -15.6646697 31.66746406 -15 30 C-13.71562348 27.64394625 -12.4119925 25.31766052 -11.0625 23 C-10.54139648 22.09507812 -10.54139648 22.09507812 -10.00976562 21.171875 C-8.49633946 18.54974304 -6.96750842 15.94868942 -5.34765625 13.390625 C-3.92591654 10.86858238 -3.13461611 8.53804155 -2.375 5.75 C-1.09387755 1.09387755 -1.09387755 1.09387755 0 0 Z " fill="#EB4386" transform="translate(398,282)"/>
<path d="M0 0 C0.33 0 0.66 0 1 0 C1.90685948 6.00794405 0.8324567 8.8075366 -2.75 13.75 C-8.40085504 21.07518246 -13.54103468 25.64503225 -23 27 C-26.95931356 27.05564643 -30.91836988 26.92734764 -34.875 26.78515625 C-40.3528689 26.68951092 -44.0114553 27.4999672 -49 30 C-50.26168212 30.53542945 -51.52749593 31.06120795 -52.796875 31.578125 C-75.11204686 40.94440029 -92.88930764 56.24741071 -109.44458008 73.6472168 C-111.48227203 75.41944268 -113.38773936 75.55218389 -116 76 C-117.37466625 78.47636012 -117.37466625 78.47636012 -118 81 C-121.465 81.495 -121.465 81.495 -125 82 C-121.83195173 75.00389341 -117.65944678 69.08822245 -113 63 C-112.29875 62.06542969 -111.5975 61.13085938 -110.875 60.16796875 C-109.946875 59.09482422 -109.946875 59.09482422 -109 58 C-108.34 58 -107.68 58 -107 58 C-106.72704102 57.40324463 -106.45408203 56.80648926 -106.17285156 56.19165039 C-104.30521115 52.70168204 -101.54383261 50.20605418 -98.75 47.4375 C-98.12955811 46.82052246 -97.50911621 46.20354492 -96.86987305 45.56787109 C-90.65131974 39.49123661 -83.97246393 34.17599254 -77 29 C-75.45892578 27.83597656 -75.45892578 27.83597656 -73.88671875 26.6484375 C-67.74264463 22.07571657 -61.58522835 18.68415138 -54.625 15.5 C-53.75101562 15.0978125 -52.87703125 14.695625 -51.9765625 14.28125 C-50.50316406 13.64703125 -50.50316406 13.64703125 -49 13 C-47.81019531 12.4534375 -46.62039063 11.906875 -45.39453125 11.34375 C-39.12614528 9.02607727 -32.49666995 9.87145964 -25.93164062 10.1171875 C-19.31257713 10.26809712 -14.11260754 9.56014005 -8 7 C-6.989375 6.608125 -5.97875 6.21625 -4.9375 5.8125 C-4.298125 5.544375 -3.65875 5.27625 -3 5 C-3 4.34 -3 3.68 -3 3 C-2.34 3 -1.68 3 -1 3 C-0.67 2.01 -0.34 1.02 0 0 Z " fill="#EA4587" transform="translate(307,119)"/>
<path d="M0 0 C1.31291016 -0.02513672 1.31291016 -0.02513672 2.65234375 -0.05078125 C5.57219911 0.38932661 6.94226113 1.28423496 9.0625 3.3125 C9.54939007 6.09472898 9.57524595 7.56254062 7.96484375 9.91796875 C5.15051798 11.98103713 2.6470241 11.85969907 -0.8125 12.125 C-7.81750655 12.80144737 -14.37408919 14.34274915 -21.125 16.3125 C-22.02138184 16.57393799 -22.91776367 16.83537598 -23.84130859 17.10473633 C-27.2309368 18.11802769 -30.53092956 19.14388143 -33.80078125 20.5 C-35.9375 21.3125 -35.9375 21.3125 -39.9375 21.3125 C-39.9375 21.9725 -39.9375 22.6325 -39.9375 23.3125 C-40.52015625 23.52003906 -41.1028125 23.72757813 -41.703125 23.94140625 C-54.66008731 28.81045341 -65.41547931 36.53089199 -76.15625 45.078125 C-77.9375 46.3125 -77.9375 46.3125 -79.9375 46.3125 C-80.2675 47.3025 -80.5975 48.2925 -80.9375 49.3125 C-82.609375 50.92578125 -82.609375 50.92578125 -84.6875 52.625 C-87.33475339 54.8547654 -89.66406416 57.03550921 -91.8125 59.75 C-92.864375 61.0184375 -92.864375 61.0184375 -93.9375 62.3125 C-94.5975 62.3125 -95.2575 62.3125 -95.9375 62.3125 C-95.9375 62.9725 -95.9375 63.6325 -95.9375 64.3125 C-98.14209212 66.43544056 -99.51174611 67.25167802 -102.5625 67.6875 C-103.738125 67.501875 -103.738125 67.501875 -104.9375 67.3125 C-107.32063638 63.73779543 -107.58587918 62.52696465 -106.9375 58.3125 C-105.22063773 55.68980856 -103.29798142 53.37945006 -100.9375 51.3125 C-100.2775 51.3125 -99.6175 51.3125 -98.9375 51.3125 C-98.56238281 50.43078125 -98.56238281 50.43078125 -98.1796875 49.53125 C-96.77323115 47.01908898 -95.27109008 45.64604648 -93.0625 43.8125 C-90.94960919 42.04506282 -88.92741278 40.30218908 -87 38.33203125 C-83.06604127 34.48003 -78.41612385 31.49452359 -73.9375 28.3125 C-73.05964844 27.67441406 -72.18179688 27.03632812 -71.27734375 26.37890625 C-70.02630859 25.47978516 -70.02630859 25.47978516 -68.75 24.5625 C-67.64591797 23.76585937 -67.64591797 23.76585937 -66.51953125 22.953125 C-63.75333583 21.19548192 -60.92601969 19.7613743 -57.98364258 18.32568359 C-56.12025912 17.4029964 -54.29018643 16.41379687 -52.46484375 15.41796875 C-44.60199877 11.16701199 -36.68198072 8.03444979 -28.125 5.4375 C-27.18325928 5.15156982 -26.24151855 4.86563965 -25.27124023 4.57104492 C-17.0648533 2.17969903 -8.5944415 0.03877192 0 0 Z " fill="#FDCAE1" transform="translate(269.9375,71.6875)"/>
<path d="M0 0 C0.33 0 0.66 0 1 0 C1.04898438 1.0621875 1.09796875 2.124375 1.1484375 3.21875 C2.04676967 20.88664563 6.59254757 35.66291241 19.89453125 48.21875 C24.48451546 52.10192774 29.29583927 55.4088533 34.875 57.6875 C38 59 38 59 41 62 C39.02 67.28 37.04 72.56 35 78 C25.79709621 78 23.05404769 76.12923894 16 71 C15.34 70.56042969 14.68 70.12085938 14 69.66796875 C10.80615495 67.37239262 10.04327655 66.25533164 9.375 62.3125 C9.25125 61.219375 9.1275 60.12625 9 59 C7.15028304 57.94978897 7.15028304 57.94978897 5 57 C3.47733593 54.66842064 2.22759182 52.47888232 1 50 C0.63519531 49.31550781 0.27039063 48.63101563 -0.10546875 47.92578125 C-3.073759 41.95705321 -3.81118476 36.6164008 -4 30 C-4.02578125 29.31663574 -4.0515625 28.63327148 -4.078125 27.92919922 C-4.40177651 18.62624113 -4.5445973 9.79721298 -1 1 C-0.67 0.67 -0.34 0.34 0 0 Z " fill="#EB4386" transform="translate(95,210)"/>
<path d="M0 0 C0.66 0 1.32 0 2 0 C2.6030368 9.84960113 -0.21968807 15.35271046 -6.18359375 22.984375 C-7.99290652 24.99212853 -9.7346883 26.53010576 -12 28 C-12.66 28 -13.32 28 -14 28 C-14 28.66 -14 29.32 -14 30 C-15.92609876 31.59703173 -17.8584674 33.08745929 -19.875 34.5625 C-25.19230534 38.53186917 -30.14860266 42.72185201 -34.9765625 47.28515625 C-37 49 -37 49 -40 50 C-40.69665431 51.31791312 -41.35633785 52.65541038 -42 54 C-43.49920906 55.91297942 -45.02344319 57.80643057 -46.5625 59.6875 C-52.53307174 67.17655417 -56.76005944 75.44842907 -61 84 C-61.99 83.67 -62.98 83.34 -64 83 C-62.47597252 74.6635697 -59.94850195 66.85647509 -55.171875 59.82421875 C-53.37627991 57.02907572 -52.22055235 54.08350066 -51 51 C-50.34 51 -49.68 51 -49 51 C-48.7525 50.0925 -48.505 49.185 -48.25 48.25 C-46.92791055 44.81256743 -45.63749847 43.47765008 -43 41 C-42.57976562 40.26007813 -42.15953125 39.52015625 -41.7265625 38.7578125 C-39.63120581 35.41093055 -37.09264788 32.71050097 -34.3125 29.9375 C-33.46788208 29.09203613 -33.46788208 29.09203613 -32.60620117 28.22949219 C-27.66854208 23.41482093 -22.33621 19.31288931 -16.76660156 15.26196289 C-7.13523599 8.74501044 -7.13523599 8.74501044 0 0 Z " fill="#E84486" transform="translate(264,237)"/>
<path d="M0 0 C0.66 0 1.32 0 2 0 C0.08706613 24.38990678 -14.43259472 46.43239366 -28.79003906 65.390625 C-29.86477905 66.82014195 -30.9147251 68.26822444 -31.9609375 69.71875 C-33.2580652 71.51574642 -34.61984349 73.26595721 -36 75 C-36.66 75 -37.32 75 -38 75 C-38.30550781 75.79664063 -38.30550781 75.79664063 -38.6171875 76.609375 C-40.59505609 80.02874104 -43.30326899 82.51337921 -46.125 85.25 C-46.68832031 85.80429687 -47.25164062 86.35859375 -47.83203125 86.9296875 C-49.21686028 88.29104485 -50.60783204 89.64614859 -52 91 C-52.33 90.01 -52.66 89.02 -53 88 C-52.360625 87.7525 -51.72125 87.505 -51.0625 87.25 C-50.381875 86.8375 -49.70125 86.425 -49 86 C-48.7834375 85.01 -48.7834375 85.01 -48.5625 84 C-48.2840625 83.01 -48.2840625 83.01 -48 82 C-46.33333333 81.33333333 -44.66666667 80.66666667 -43 80 C-42.11306697 77.95894361 -42.11306697 77.95894361 -42 76 C-41.34 76 -40.68 76 -40 76 C-39.71125 75.38125 -39.4225 74.7625 -39.125 74.125 C-38 72 -38 72 -36 70 C-35.60235737 68.01178687 -35.26224651 66.01055661 -35 64 C-35.99 64.495 -35.99 64.495 -37 65 C-37.99 64.34 -38.98 63.68 -40 63 C-39.48953125 62.46375 -38.9790625 61.9275 -38.453125 61.375 C-32.84879905 55.33345713 -27.8683455 48.99250672 -22.98730469 42.359375 C-22.4977832 41.69421875 -22.00826172 41.0290625 -21.50390625 40.34375 C-21.06892822 39.74755859 -20.6339502 39.15136719 -20.18579102 38.53710938 C-19 37 -19 37 -17 35 C-16.33077002 33.33436095 -15.6646697 31.66746406 -15 30 C-13.71562348 27.64394625 -12.4119925 25.31766052 -11.0625 23 C-10.71509766 22.39671875 -10.36769531 21.7934375 -10.00976562 21.171875 C-8.49633946 18.54974304 -6.96750842 15.94868942 -5.34765625 13.390625 C-3.92591654 10.86858238 -3.13461611 8.53804155 -2.375 5.75 C-1.09387755 1.09387755 -1.09387755 1.09387755 0 0 Z " fill="#E44C89" transform="translate(398,282)"/>
<path d="M0 0 C3.5 0.6875 3.5 0.6875 4.5 1.6875 C4.91536373 4.7508075 5.15454971 6.73377569 4.5 9.6875 C3.03783319 11.37884656 1.43993835 12.52614055 -0.37109375 13.8359375 C-4.02286509 17.01197349 -6.46519179 21.2423277 -9.09375 25.2734375 C-11.5 27.6875 -11.5 27.6875 -15.28125 28.0390625 C-16.3434375 27.92304688 -17.405625 27.80703125 -18.5 27.6875 C-19.99590709 24.69568583 -19.92743011 23.0458794 -19.5 19.6875 C-17.85635218 16.40647783 -15.74220734 13.58349264 -13.5 10.6875 C-12.80003906 9.76324219 -12.10007813 8.83898437 -11.37890625 7.88671875 C-4.98611793 0.05361417 -4.98611793 0.05361417 0 0 Z " fill="#FDC9E1" transform="translate(150.5,148.3125)"/>
<path d="M0 0 C3.0625 0.3125 3.0625 0.3125 5 1.3125 C6.80261884 4.70566487 5.95265358 7.75188566 5.0625 11.3125 C0.65251553 25.65288117 0.65251553 25.65288117 -2.9375 28.3125 C-5.79230169 28.74072025 -7.28242892 28.71909584 -9.75 27.1875 C-11.50258781 24.42025609 -11.17942658 22.58036974 -10.9375 19.3125 C-10.15821089 16.32694417 -9.12954422 13.45592689 -8.0625 10.5625 C-7.65837891 9.41201172 -7.65837891 9.41201172 -7.24609375 8.23828125 C-4.44849698 0.47324436 -4.44849698 0.47324436 0 0 Z " fill="#FDC8E1" transform="translate(362.9375,218.6875)"/>
<path d="M0 0 C0.66 0.33 1.32 0.66 2 1 C3.67654729 0.72057545 5.34608154 0.39171753 7 0 C2.83320289 4.28757384 -1.61395373 7.99540129 -6.28125 11.71875 C-9.08309332 13.99367986 -9.08309332 13.99367986 -11.71875 16.78125 C-14 19 -14 19 -16 19 C-16.23589844 19.54269531 -16.47179687 20.08539063 -16.71484375 20.64453125 C-18.34439747 23.6312209 -20.40763152 26.05377186 -22.5625 28.6875 C-28.53307174 36.17655417 -32.76005944 44.44842907 -37 53 C-37.99 52.67 -38.98 52.34 -40 52 C-38.4674408 43.61690115 -35.92529176 35.73731921 -31.0859375 28.68359375 C-29.83470555 26.88904043 -29.83470555 26.88904043 -29 24.125 C-28 22 -28 22 -25.6875 20.75 C-23 20 -23 20 -20.375 19.6875 C-17.06570759 18.72954693 -16.64154272 16.92622832 -15 14 C-14.34 13.690625 -13.68 13.38125 -13 13.0625 C-10.00280677 11.4702411 -9.31512337 9.02478376 -8 6 C-7.01 6 -6.02 6 -5 6 C-5 5.34 -5 4.68 -5 4 C-3.35 4 -1.7 4 0 4 C0 2.68 0 1.36 0 0 Z " fill="#E44A89" transform="translate(240,268)"/>
<path d="M0 0 C-0.66 1.65 -1.32 3.3 -2 5 C-1.34 5.33 -0.68 5.66 0 6 C0 7.32 0 8.64 0 10 C-0.99 10.33 -1.98 10.66 -3 11 C-3.33 11.66 -3.66 12.32 -4 13 C-5.65 13 -7.3 13 -9 13 C-9 13.66 -9 14.32 -9 15 C-9.99 15 -10.98 15 -12 15 C-12.28875 15.94875 -12.5775 16.8975 -12.875 17.875 C-14 21 -14 21 -16 23 C-16.99 23 -17.98 23 -19 23 C-19.1546875 23.8971875 -19.1546875 23.8971875 -19.3125 24.8125 C-20.12255514 27.38994819 -20.80289005 28.43063575 -23 30 C-25.5 30.125 -25.5 30.125 -28 30 C-28.99 30.33 -29.98 30.66 -31 31 C-31 30.34 -31 29.68 -31 29 C-30.34 29 -29.68 29 -29 29 C-28.62875 27.63875 -28.62875 27.63875 -28.25 26.25 C-26.92791055 22.81256743 -25.63749847 21.47765008 -23 19 C-22.59523437 18.27425781 -22.19046875 17.54851562 -21.7734375 16.80078125 C-19.45750203 13.14323558 -16.62181266 10.29222153 -13.5625 7.25 C-12.98951172 6.66089844 -12.41652344 6.07179688 -11.82617188 5.46484375 C-10.98602539 4.62373047 -10.98602539 4.62373047 -10.12890625 3.765625 C-9.62431885 3.25805664 -9.11973145 2.75048828 -8.59985352 2.22753906 C-5.84937453 0.1171456 -3.40688253 0 0 0 Z " fill="#EA4285" transform="translate(244,259)"/>
<path d="M0 0 C0.66 0 1.32 0 2 0 C2 11.55 2 23.1 2 35 C1.67 35 1.34 35 1 35 C-0.14850697 30.26120232 -0.32901557 25.53708638 -0.5625 20.6875 C-0.60568359 19.85154297 -0.64886719 19.01558594 -0.69335938 18.15429688 C-0.79885307 16.10303065 -0.89987315 14.0515352 -1 12 C-7.13411533 31.22022803 -5.42883875 54.45692202 2 73 C2.66 73.99 3.32 74.98 4 76 C4 76.99 4 77.98 4 79 C4.99 79.33 5.98 79.66 7 80 C7 80.66 7 81.32 7 82 C7.66 82 8.32 82 9 82 C9.33 83.65 9.66 85.3 10 87 C10.66 87 11.32 87 12 87 C12.33 88.32 12.66 89.64 13 91 C13.99 91 14.98 91 16 91 C16.66 92.98 17.32 94.96 18 97 C8.24918736 92.97860055 1.76876072 79.30518407 -2.25390625 70.14453125 C-6.25425014 59.67868691 -7.3894819 49.66630521 -7.375 38.5 C-7.37411377 37.27200684 -7.37322754 36.04401367 -7.37231445 34.77880859 C-7.21476629 22.57962266 -5.87471495 10.87411421 0 0 Z " fill="#DA81A6" transform="translate(120,314)"/>
<path d="M0 0 C0.22036864 3.85645121 -0.39644899 6.49223216 -2 10 C-2.66 10 -3.32 10 -4 10 C-4.12375 11.051875 -4.2475 12.10375 -4.375 13.1875 C-5.50867653 17.8829513 -8.09863982 21.24218949 -11 25 C-11.45165527 25.5880542 -11.90331055 26.1761084 -12.36865234 26.78198242 C-13.52465502 28.23308463 -14.75703257 29.62265772 -16 31 C-16.66 31 -17.32 31 -18 31 C-18.20367187 31.53109375 -18.40734375 32.0621875 -18.6171875 32.609375 C-20.59505609 36.02874104 -23.30326899 38.51337921 -26.125 41.25 C-26.96998047 42.08144531 -26.96998047 42.08144531 -27.83203125 42.9296875 C-29.21686028 44.29104485 -30.60783204 45.64614859 -32 47 C-32.495 45.515 -32.495 45.515 -33 44 C-32.360625 43.7525 -31.72125 43.505 -31.0625 43.25 C-30.381875 42.8375 -29.70125 42.425 -29 42 C-28.855625 41.34 -28.71125 40.68 -28.5625 40 C-28.376875 39.34 -28.19125 38.68 -28 38 C-26.33333333 37.33333333 -24.66666667 36.66666667 -23 36 C-22.11306697 33.95894361 -22.11306697 33.95894361 -22 32 C-21.34 32 -20.68 32 -20 32 C-19.71125 31.38125 -19.4225 30.7625 -19.125 30.125 C-18 28 -18 28 -16 26 C-15.60235737 24.01178687 -15.26224651 22.01055661 -15 20 C-15.66 20.33 -16.32 20.66 -17 21 C-17.99 20.34 -18.98 19.68 -20 19 C-19.09507812 18.00419922 -19.09507812 18.00419922 -18.171875 16.98828125 C-17.37265625 16.10527344 -16.5734375 15.22226562 -15.75 14.3125 C-14.96109375 13.44238281 -14.1721875 12.57226562 -13.359375 11.67578125 C-11.82202153 9.93225952 -10.33258433 8.14491251 -8.90234375 6.3125 C-6.89639382 3.87405573 -3.41317013 0 0 0 Z " fill="#E74586" transform="translate(378,326)"/>
<path d="M0 0 C7.28366017 0.35204357 13.29527409 1.11003194 20 4 C29.59102412 7.62327578 39.52625598 8.32632289 49.6875 8.625 C50.78255859 8.66367187 51.87761719 8.70234375 53.00585938 8.7421875 C55.670418 8.83527252 58.33499022 8.92109852 61 9 C61 8.34 61 7.68 61 7 C87.09612462 1.58586626 87.09612462 1.58586626 96 2 C91.41948379 5.05367748 86.31558803 5.80257688 81 7.0625 C79.91332031 7.33126953 78.82664062 7.60003906 77.70703125 7.87695312 C51.75484757 14.09369485 24.36033878 11.92759878 0 1 C0 0.67 0 0.34 0 0 Z " fill="#DA7FA4" transform="translate(158,425)"/>
<path d="M0 0 C0 3.33156142 -0.45664761 5.06028115 -2 8 C-4.375 9.625 -4.375 9.625 -7 11 C-8.34631825 11.98244845 -9.68441297 12.97676564 -11 14 C-11.66 13.67 -12.32 13.34 -13 13 C-13.185625 13.928125 -13.185625 13.928125 -13.375 14.875 C-14 17 -14 17 -16 19 C-16.99 19 -17.98 19 -19 19 C-19.061875 19.53625 -19.12375 20.0725 -19.1875 20.625 C-20.40035264 24.17026157 -22.44610926 26.2592392 -25 29 C-25.66 29 -26.32 29 -27 29 C-27.10828125 29.59167969 -27.2165625 30.18335938 -27.328125 30.79296875 C-28.08156092 33.26791814 -29.00378203 34.42676462 -30.75 36.3125 C-32.89660859 38.70047367 -34.81805638 41.09570084 -36.625 43.75 C-38.08867235 45.86785388 -39.08813673 47.065473 -41.1875 48.625 C-43.57801533 50.43849439 -44.041786 52.19380185 -45 55 C-46.34740053 57.96428116 -47.87472938 60.52051762 -50 63 C-50.66 63 -51.32 63 -52 63 C-52 63.66 -52 64.32 -52 65 C-52.66 65 -53.32 65 -54 65 C-48.08966554 49.51926157 -36.16037249 35.98067066 -25 24 C-23.78661781 22.60855334 -22.57802197 21.21291361 -21.375 19.8125 C-14.86679802 12.38304568 -7.72342552 6.15918744 0 0 Z " fill="#E7ADC7" transform="translate(161,110)"/>
<path d="M0 0 C0.66 0 1.32 0 2 0 C2 0.99 2 1.98 2 3 C1.34 3 0.68 3 0 3 C-1.85776765 6.13498292 -2.20140476 8.37471432 -2 12 C0.64 11.34 3.28 10.68 6 10 C6 9.34 6 8.68 6 8 C7.65 7.67 9.3 7.34 11 7 C9.38405168 9.04119788 7.7143618 11.04072937 6 13 C5.34 13 4.68 13 4 13 C4 13.66 4 14.32 4 15 C1.68475228 16.92278128 -0.63825731 18.72322069 -3.0625 20.5 C-4.13504028 21.29434448 -4.13504028 21.29434448 -5.22924805 22.10473633 C-10.18243225 25.74308911 -15.20813941 29.26476199 -20.3125 32.6875 C-21.25331421 33.31978516 -21.25331421 33.31978516 -22.21313477 33.96484375 C-24.79517044 35.66939212 -27.04987166 37.01662389 -30 38 C-30 36.35 -30 34.7 -30 33 C-28.68 33 -27.36 33 -26 33 C-25.67 32.01 -25.34 31.02 -25 30 C-22.93359375 29.26953125 -22.93359375 29.26953125 -20.4375 28.8125 C-19.61121094 28.65394531 -18.78492188 28.49539063 -17.93359375 28.33203125 C-17.29550781 28.22246094 -16.65742188 28.11289062 -16 28 C-16 27.34 -16 26.68 -16 26 C-15.0206121 24.97980427 -14.02104551 23.97850195 -13 23 C-13 22.67 -13 22.34 -13 22 C-11.35 22 -9.7 22 -8 22 C-8 21.01 -8 20.02 -8 19 C-6.68 18.34 -5.36 17.68 -4 17 C-4.54708727 14.46255685 -4.54708727 14.46255685 -6 12 C-9.05272465 11.10169161 -9.05272465 11.10169161 -12 11 C-7.375 6.125 -7.375 6.125 -4 5 C-4 4.34 -4 3.68 -4 3 C-2.68 2.67 -1.36 2.34 0 2 C0 1.34 0 0.68 0 0 Z " fill="#E54B89" transform="translate(334,366)"/>
<path d="M0 0 C7.07716607 5.06744818 11.3218384 11.14393052 13.2421875 19.60546875 C12.5821875 20.26546875 11.9221875 20.92546875 11.2421875 21.60546875 C11.05785156 21.07179687 10.87351562 20.538125 10.68359375 19.98828125 C7.65557375 12.20963432 2.94084742 5.23536617 -4.47265625 1.0859375 C-10.28054855 -1.21929886 -15.56380981 -1.9735121 -21.7578125 -1.39453125 C-22.60214844 -1.31589844 -23.44648438 -1.23726562 -24.31640625 -1.15625 C-26.46678732 -0.93148318 -28.6129404 -0.66689596 -30.7578125 -0.39453125 C-30.7578125 0.26546875 -30.7578125 0.92546875 -30.7578125 1.60546875 C-34.28729541 3.27216901 -36.04053576 3.74130331 -39.7578125 2.60546875 C-27.65814892 -7.12686935 -13.40801029 -7.91026213 0 0 Z " fill="#ECBAD2" transform="translate(394.7578125,209.39453125)"/>
<path d="M0 0 C-0.53625 0.29390625 -1.0725 0.5878125 -1.625 0.890625 C-14.9463008 8.5153169 -26.57711528 18.15796077 -37.59765625 28.7734375 C-40.94530691 31.99334501 -44.44178582 35.01603962 -48 38 C-48 36.68 -48 35.36 -48 34 C-47.34 34 -46.68 34 -46 34 C-46 33.34 -46 32.68 -46 32 C-46.66 31.67 -47.32 31.34 -48 31 C-44.92000054 27.32769295 -42.7517398 26.43197635 -38 26 C-37.67 24.68 -37.34 23.36 -37 22 C-36.67 22.33 -36.34 22.66 -36 23 C-35.89042969 22.43410156 -35.78085938 21.86820313 -35.66796875 21.28515625 C-35.43013672 20.18494141 -35.43013672 20.18494141 -35.1875 19.0625 C-35.03667969 18.33160156 -34.88585937 17.60070312 -34.73046875 16.84765625 C-34.48941406 16.23792969 -34.24835938 15.62820312 -34 15 C-30.26483047 13.75494349 -26.92988826 14 -23 14 C-23 13.34 -23 12.68 -23 12 C-21.5390625 10.7109375 -21.5390625 10.7109375 -19.625 9.375 C-18.99851563 8.92898437 -18.37203125 8.48296875 -17.7265625 8.0234375 C-16 7 -16 7 -14 7 C-14 6.34 -14 5.68 -14 5 C-13.01 5 -12.02 5 -11 5 C-11 4.34 -11 3.68 -11 3 C-4.03571429 -1.41964286 -4.03571429 -1.41964286 0 0 Z " fill="#E05C90" transform="translate(244,155)"/>
<path d="M0 0 C-13.16712021 8.63140271 -33.04896232 20.42180546 -49 22 C-49.66 21.34 -50.32 20.68 -51 20 C-49.02 19.67 -47.04 19.34 -45 19 C-45 18.34 -45 17.68 -45 17 C-43.35 16.34 -41.7 15.68 -40 15 C-40 14.67 -40 14.34 -40 14 C-34.555 13.505 -34.555 13.505 -29 13 C-29 12.34 -29 11.68 -29 11 C-28.01 10.67 -27.02 10.34 -26 10 C-25.67 9.34 -25.34 8.68 -25 8 C-22.63671875 7 -22.63671875 7 -19.6875 6 C-15.69988146 4.6489677 -15.69988146 4.6489677 -11.89453125 2.875 C-10 2 -10 2 -6 2 C-6 1.34 -6 0.68 -6 0 C-3.50907189 -1.24546405 -2.58919267 -0.7767578 0 0 Z " fill="#DA719D" transform="translate(304,405)"/>
<path d="M0 0 C1.89453125 2.23046875 1.89453125 2.23046875 3 4 C-0.47552414 4 -2.17307735 2.82955536 -5.09765625 1.0859375 C-10.82982492 -2.18622449 -16.31524359 -4.16326056 -22.9375 -4 C-25.84190783 -3.94889605 -27.99007991 -3.99735464 -30.8125 -4.75 C-31.534375 -4.8325 -32.25625 -4.915 -33 -5 C-33.721875 -4.401875 -34.44375 -3.80375 -35.1875 -3.1875 C-39.01886338 -0.2075507 -43.15862246 0.77721095 -48 1 C-48.66 0.34 -49.32 -0.32 -50 -1 C-47.64960987 -1.98916033 -45.29533139 -2.96636681 -42.9375 -3.9375 C-42.28072266 -4.21529297 -41.62394531 -4.49308594 -40.94726562 -4.77929688 C-26.70534643 -10.60234758 -12.61083603 -8.30973233 0 0 Z " fill="#EBAFCC" transform="translate(259,191)"/>
<path d="M0 0 C0.66 0 1.32 0 2 0 C3.14623359 5.13022997 4.04117148 10.05311495 4.25 15.3125 C4.69106478 21.25839246 6.98295454 25.96590909 9.625 31.25 C11 34 11 34 12 37 C12.9590625 37.1546875 12.9590625 37.1546875 13.9375 37.3125 C14.9584375 37.6528125 14.9584375 37.6528125 16 38 C17.25 41.0625 17.25 41.0625 18 44 C15 44 15 44 13.16796875 42.33984375 C4.15121031 31.4023557 -0.24015359 19.21228755 -0.0625 5 C-0.05347656 4.05125 -0.04445313 3.1025 -0.03515625 2.125 C-0.02355469 1.42375 -0.01195313 0.7225 0 0 Z " fill="#DE7BA6" transform="translate(88,230)"/>
<path d="M0 0 C0.99 0 1.98 0 3 0 C3.54583842 6.59857996 3.6046653 11.67955993 -0.390625 17.15625 C-5.92321239 23.49455401 -12.39332703 29.39743197 -21.09326172 30.19091797 C-36.5700761 30.9691179 -36.5700761 30.9691179 -41 28 C-41 27.67 -41 27.34 -41 27 C-39.04707031 27.03480469 -39.04707031 27.03480469 -37.0546875 27.0703125 C-35.32813076 27.08907942 -33.60156779 27.10727863 -31.875 27.125 C-31.0190625 27.14175781 -30.163125 27.15851563 -29.28125 27.17578125 C-24.40531367 27.21328845 -20.58804053 26.83922908 -16 25 C-15.18015625 24.77699219 -14.3603125 24.55398437 -13.515625 24.32421875 C-11.2455653 23.6862537 -9.13338067 23.00755144 -7 22 C-5.69485264 19.78223378 -5.69485264 19.78223378 -5 17 C-3.98546778 15.68691333 -2.94043883 14.39712905 -1.875 13.125 C0.48955587 10.08732239 0.98597194 9.12424853 1.4375 5.125 C1.18352432 2.10131207 1.18352432 2.10131207 0 0 Z " fill="#E490B6" transform="translate(306,118)"/>
<path d="M0 0 C1 2 1 2 0.0625 5.625 C-1.70686183 10.15950404 -4.61322881 12.89978389 -8.1328125 16.16796875 C-10.23184973 18.22748436 -11.56434992 20.44773319 -13 23 C-13.66 23 -14.32 23 -15 23 C-15.04125 23.5775 -15.0825 24.155 -15.125 24.75 C-16.43400256 28.11600658 -19.00937984 29.1308624 -22 31 C-22.33 31.66 -22.66 32.32 -23 33 C-23.99 33 -24.98 33 -26 33 C-26 33.99 -26 34.98 -26 36 C-28.31193977 38.07277359 -30.02935582 39.00978527 -33 40 C-33.33 40.66 -33.66 41.32 -34 42 C-35.32 41.67 -36.64 41.34 -38 41 C-36.21326795 39.4941255 -34.42046492 37.9954515 -32.625 36.5 C-31.62726563 35.6646875 -30.62953125 34.829375 -29.6015625 33.96875 C-27 32 -27 32 -25 32 C-25 31.34 -25 30.68 -25 30 C-24.34 30 -23.68 30 -23 30 C-23 29.34 -23 28.68 -23 28 C-22.34 28 -21.68 28 -21 28 C-20.67 27.01 -20.34 26.02 -20 25 C-19.34 25 -18.68 25 -18 25 C-18 24.34 -18 23.68 -18 23 C-17.34 23 -16.68 23 -16 23 C-16 22.34 -16 21.68 -16 21 C-15.34 21 -14.68 21 -14 21 C-13.773125 20.48566406 -13.54625 19.97132813 -13.3125 19.44140625 C-11.49470183 16.06008525 -9.25453943 13.0391021 -7 9.9375 C-3.43761598 5.01255555 -3.43761598 5.01255555 0 0 Z " fill="#E8AECA" transform="translate(331,272)"/>
<path d="M0 0 C-4.8296471 3.82347062 -9.91256933 7.62548094 -15.9375 9.1875 C-16.948125 9.455625 -17.95875 9.72375 -19 10 C-19.33 10.66 -19.66 11.32 -20 12 C-21.8693711 12.8837027 -23.73891817 13.76703518 -25.609375 14.6484375 C-29.33080489 16.75238316 -32.41366548 19.56492517 -35.60546875 22.390625 C-38.34506921 24.23192254 -39.76806452 24.34443362 -43 24 C-39.30025396 20.02593818 -35.4975431 17.139467 -30.875 14.3125 C-30.19284424 13.89186279 -29.51068848 13.47122559 -28.80786133 13.0378418 C-23.19382983 9.62700044 -17.47344668 6.42157363 -11.6875 3.3125 C-10.46039307 2.64311401 -10.46039307 2.64311401 -9.20849609 1.96020508 C-8.44230957 1.55697021 -7.67612305 1.15373535 -6.88671875 0.73828125 C-6.20826904 0.37774658 -5.52981934 0.01721191 -4.83081055 -0.35424805 C-3 -1 -3 -1 0 0 Z " fill="#E7AEC9" transform="translate(218,76)"/>
<path d="M0 0 C0.66 0 1.32 0 2 0 C2 11.55 2 23.1 2 35 C1.67 35 1.34 35 1 35 C-0.14850697 30.26120232 -0.32901557 25.53708638 -0.5625 20.6875 C-0.60568359 19.85154297 -0.64886719 19.01558594 -0.69335938 18.15429688 C-0.79885307 16.10303065 -0.89987315 14.0515352 -1 12 C-2.20064402 15.98750472 -3.24190388 19.78729201 -3.625 23.9375 C-3.69976562 24.70964844 -3.77453125 25.48179687 -3.8515625 26.27734375 C-3.90054688 26.84582031 -3.94953125 27.41429687 -4 28 C-4.33 28 -4.66 28 -5 28 C-6.35134931 21.69370321 -5.75089216 16.7841542 -4.1875 10.625 C-4.00993164 9.92310547 -3.83236328 9.22121094 -3.64941406 8.49804688 C-2.77028857 5.23091982 -1.89283262 2.83924893 0 0 Z " fill="#E877A7" transform="translate(120,314)"/>
<path d="M0 0 C0.66 0.33 1.32 0.66 2 1 C3.67654729 0.72057545 5.34608154 0.39171753 7 0 C2.83320289 4.28757384 -1.61395373 7.99540129 -6.28125 11.71875 C-9.08309332 13.99367986 -9.08309332 13.99367986 -11.71875 16.78125 C-14 19 -14 19 -16 19 C-16.66 20.32 -17.32 21.64 -18 23 C-18.99 23 -19.98 23 -21 23 C-19.73046875 21.53515625 -18.4609375 20.0703125 -17.19140625 18.60546875 C-15.79128769 16.89287029 -15.79128769 16.89287029 -15 14 C-14.38125 13.731875 -13.7625 13.46375 -13.125 13.1875 C-10.07704451 11.48423076 -9.35923152 9.1262325 -8 6 C-7.01 6 -6.02 6 -5 6 C-5 5.34 -5 4.68 -5 4 C-3.35 4 -1.7 4 0 4 C0 2.68 0 1.36 0 0 Z " fill="#DD6A99" transform="translate(240,268)"/>
<path d="M0 0 C-1.40016617 4.04735532 -3.3181237 6.98480422 -6 10.3125 C-6.70125 11.19550781 -7.4025 12.07851563 -8.125 12.98828125 C-8.74375 13.65214844 -9.3625 14.31601562 -10 15 C-10.66 15 -11.32 15 -12 15 C-12.20367187 15.53109375 -12.40734375 16.0621875 -12.6171875 16.609375 C-14.59505609 20.02874104 -17.30326899 22.51337921 -20.125 25.25 C-20.68832031 25.80429687 -21.25164062 26.35859375 -21.83203125 26.9296875 C-23.21686028 28.29104485 -24.60783204 29.64614859 -26 31 C-26.33 30.01 -26.66 29.02 -27 28 C-26.360625 27.7525 -25.72125 27.505 -25.0625 27.25 C-24.381875 26.8375 -23.70125 26.425 -23 26 C-22.855625 25.34 -22.71125 24.68 -22.5625 24 C-22.376875 23.34 -22.19125 22.68 -22 22 C-20.33333333 21.33333333 -18.66666667 20.66666667 -17 20 C-16.11306697 17.95894361 -16.11306697 17.95894361 -16 16 C-15.34 16 -14.68 16 -14 16 C-13.62875 15.071875 -13.62875 15.071875 -13.25 14.125 C-12 12 -12 12 -10 11.125 C-7.04438071 9.46246415 -7.00865538 7.15204806 -6 4 C-2.63157895 0 -2.63157895 0 0 0 Z " fill="#DA6FA0" transform="translate(372,342)"/>
<path d="M0 0 C0.66 0 1.32 0 2 0 C2.59941428 9.79043322 -0.163607 15.50140618 -6.21484375 23.04296875 C-8.24318446 25.26659828 -10.25653691 26.75297132 -13 28 C-13 27.01 -13 26.02 -13 25 C-11.35 24.34 -9.7 23.68 -8 23 C-8 21.35 -8 19.7 -8 18 C-7.01 18 -6.02 18 -5 18 C-5 16.35 -5 14.7 -5 13 C-4.01 12.67 -3.02 12.34 -2 12 C-2 10.02 -2 8.04 -2 6 C-2.99 6 -3.98 6 -5 6 C-3.38405168 3.95880212 -1.7143618 1.95927063 0 0 Z " fill="#DB79A2" transform="translate(264,237)"/>
<path d="M0 0 C0.66 0 1.32 0 2 0 C1.23380775 9.76895124 -1.87998354 19.14196461 -6 28 C-7.29910639 24.10268082 -7.46731685 20.05827792 -7 16 C-6.05988318 14.29883624 -5.05104383 12.63495707 -4 11 C-3.12842478 8.38936625 -2.37851727 5.76278321 -1.6484375 3.109375 C-1 1 -1 1 0 0 Z " fill="#DD6997" transform="translate(398,282)"/>
<path d="M0 0 C-21.66183575 19 -21.66183575 19 -28 19 C-28 17.35 -28 15.7 -28 14 C-26.68 14 -25.36 14 -24 14 C-23.67 13.01 -23.34 12.02 -23 11 C-20.93359375 10.26953125 -20.93359375 10.26953125 -18.4375 9.8125 C-17.61121094 9.65394531 -16.78492188 9.49539063 -15.93359375 9.33203125 C-15.29550781 9.22246094 -14.65742188 9.11289062 -14 9 C-14 8.34 -14 7.68 -14 7 C-13.0206121 5.97980427 -12.02104551 4.97850195 -11 4 C-11 3.67 -11 3.34 -11 3 C-9.35 3 -7.7 3 -6 3 C-6 2.01 -6 1.02 -6 0 C-3 -1 -3 -1 0 0 Z " fill="#D7779F" transform="translate(332,385)"/>
<path d="M0 0 C0.33 0 0.66 0 1 0 C1.08636719 0.74765625 1.17273438 1.4953125 1.26171875 2.265625 C2.04792832 8.4055397 2.04792832 8.4055397 5.1875 13.5625 C10.92146611 16.49319379 16.56097629 17.28642352 22.9375 17.625 C23.62134766 17.66367187 24.30519531 17.70234375 25.00976562 17.7421875 C26.67279513 17.83522412 28.33635847 17.91863787 30 18 C30 18.66 30 19.32 30 20 C13.29157175 20.18451025 13.29157175 20.18451025 5 19 C4.731875 18.195625 4.46375 17.39125 4.1875 16.5625 C3.795625 15.716875 3.40375 14.87125 3 14 C2.01 13.67 1.02 13.34 0 13 C0 8.71 0 4.42 0 0 Z " fill="#E5ADC9" transform="translate(200,324)"/>
<path d="M0 0 C0.66 0 1.32 0 2 0 C0.4368887 12.15494014 -2.32055378 24.05273206 -5 36 C-5.66 35.67 -6.32 35.34 -7 35 C-5.61283593 16.12726777 -5.61283593 16.12726777 -2 9 C-1.57848115 7.42841122 -1.2031166 5.84370918 -0.875 4.25 C-0.62363281 3.05117187 -0.62363281 3.05117187 -0.3671875 1.828125 C-0.24601562 1.22484375 -0.12484375 0.6215625 0 0 Z " fill="#E19FBD" transform="translate(406,247)"/>
<path d="M0 0 C0.495 0.99 0.495 0.99 1 2 C-0.04800781 2.06058594 -1.09601563 2.12117188 -2.17578125 2.18359375 C-3.55470048 2.26801738 -4.93360605 2.35266447 -6.3125 2.4375 C-7.34793945 2.49647461 -7.34793945 2.49647461 -8.40429688 2.55664062 C-11.47161535 2.74927415 -14.06968152 3.02322717 -17 4 C-19.41247344 4.36243732 -21.83004053 4.69147927 -24.25 5 C-29.17260261 5.63262363 -34.08849067 6.28744942 -39 7 C-39.33 6.34 -39.66 5.68 -40 5 C-26.70014987 0.92861731 -13.82791913 -0.348603 0 0 Z " fill="#E7B5CB" transform="translate(275,63)"/>
<path d="M0 0 C7.33043876 1.50367974 12.67892342 6.74384758 16.91015625 12.6796875 C21 19.35106383 21 19.35106383 21 22 C20.01 22 19.02 22 18 22 C18 20.35 18 18.7 18 17 C16.68 17 15.36 17 14 17 C13.67 14.69 13.34 12.38 13 10 C11.35 10.33 9.7 10.66 8 11 C7.1646875 9.576875 7.1646875 9.576875 6.3125 8.125 C3.93429698 4.91121213 2.75965574 4.04434882 -1 3 C-0.67 2.01 -0.34 1.02 0 0 Z " fill="#E6A6C3" transform="translate(291,69)"/>
<path d="M0 0 C0.66 0.33 1.32 0.66 2 1 C-2.78120283 6.36074256 -7.92298956 8.97797942 -15 10 C-18.95928152 10.05610697 -22.9183976 9.92734665 -26.875 9.78515625 C-32.43234753 9.6881232 -36.01920681 10.54177907 -41 13 C-41.66 13 -42.32 13 -43 13 C-43 12.34 -43 11.68 -43 11 C-38.54470203 7.24817013 -34.35725977 7.75733643 -28.875 8 C-18.47346255 8.21659567 -10.17779482 7.12655426 -1.55859375 0.890625 C-0.78708984 0.44976562 -0.78708984 0.44976562 0 0 Z " fill="#E45590" transform="translate(299,136)"/>
<path d="M0 0 C0.87269531 0.19851562 1.74539063 0.39703125 2.64453125 0.6015625 C5.21863935 1.29187259 7.6458778 2.12224298 10.0625 3.25 C10.0625 3.58 10.0625 3.91 10.0625 4.25 C6.4325 4.25 2.8025 4.25 -0.9375 4.25 C-1.2675 6.23 -1.5975 8.21 -1.9375 10.25 C-2.49953125 9.93289062 -3.0615625 9.61578125 -3.640625 9.2890625 C-6.08946317 8.18125475 -8.02137855 7.86024601 -10.6875 7.625 C-11.48671875 7.55023438 -12.2859375 7.47546875 -13.109375 7.3984375 C-13.71265625 7.34945312 -14.3159375 7.30046875 -14.9375 7.25 C-14.9375 6.92 -14.9375 6.59 -14.9375 6.25 C-14.22722656 6.12882812 -13.51695312 6.00765625 -12.78515625 5.8828125 C-11.86605469 5.71523437 -10.94695312 5.54765625 -10 5.375 C-9.08347656 5.21257812 -8.16695313 5.05015625 -7.22265625 4.8828125 C-6.46855469 4.67398438 -5.71445312 4.46515625 -4.9375 4.25 C-4.6075 3.59 -4.2775 2.93 -3.9375 2.25 C-5.5875 1.92 -7.2375 1.59 -8.9375 1.25 C-5.61938793 -0.80370447 -3.77098523 -0.85994733 0 0 Z " fill="#EB9EC1" transform="translate(280.9375,64.75)"/>
<path d="M0 0 C5.5874405 4.96661378 8.85975843 10.54968372 10 18 C10.11405904 20.01857974 10.17472023 22.04074079 10.1875 24.0625 C10.20167969 25.08472656 10.21585937 26.10695312 10.23046875 27.16015625 C10.00158808 29.98043159 9.45275779 31.6055336 8 34 C7.94392578 32.67548828 7.94392578 32.67548828 7.88671875 31.32421875 C7.30903144 20.77859358 6.28288714 11.66605122 0 3 C0 2.01 0 1.02 0 0 Z " fill="#EBBBD3" transform="translate(262,195)"/>
<path d="M0 0 C0.66 0.33 1.32 0.66 2 1 C-2.87898261 11.35620559 -8.18301831 20.78445067 -15 30 C-15.33 29.01 -15.66 28.02 -16 27 C-15.67 26.34 -15.34 25.68 -15 25 C-14.34 25 -13.68 25 -13 25 C-12.87625 24.236875 -12.7525 23.47375 -12.625 22.6875 C-12 20 -12 20 -10 17 C-9.34 17 -8.68 17 -8 17 C-7.67 15.35 -7.34 13.7 -7 12 C-6.34 12 -5.68 12 -5 12 C-4.87625 11.0925 -4.7525 10.185 -4.625 9.25 C-4.07890323 6.41029677 -3.42736197 4.47409409 -2 2 C-1.34 2 -0.68 2 0 2 C0 1.34 0 0.68 0 0 Z " fill="#DC86AB" transform="translate(389,311)"/>
<path d="M0 0 C-9.91475305 6.60983537 -23.52138881 5.67106747 -35 6 C-31.89472083 4.25746924 -29.109325 3.51531531 -25.60546875 2.9296875 C-24.56712891 2.75566406 -23.52878906 2.58164062 -22.45898438 2.40234375 C-20.83959961 2.14130859 -20.83959961 2.14130859 -19.1875 1.875 C-18.11951172 1.69324219 -17.05152344 1.51148438 -15.95117188 1.32421875 C-10.56722193 0.43854733 -5.45648722 -0.23351586 0 0 Z " fill="#DD4E88" transform="translate(254,427)"/>
<path d="M0 0 C0 3 0 3 -2.125 5.3125 C-3.548125 6.6428125 -3.548125 6.6428125 -5 8 C-6.0011996 9.04051372 -7.00118564 10.08219641 -8 11.125 C-9.83994519 12.97906242 -11.27702295 14.16215977 -13.5625 15.5 C-15.88601255 16.92985388 -16.96259073 18.03086056 -18.625 20.125 C-21 23 -21 23 -24 24 C-24 23.34 -24 22.68 -24 22 C-23.34 22 -22.68 22 -22 22 C-21.75121094 21.42636719 -21.50242188 20.85273438 -21.24609375 20.26171875 C-16.66391409 11.94484721 -7.30740512 5.77763059 0 0 Z " fill="#EF9EC2" transform="translate(198,112)"/>
<path d="M0 0 C0.66 0 1.32 0 2 0 C2 0.99 2 1.98 2 3 C2.99 3.33 3.98 3.66 5 4 C5 4.66 5 5.32 5 6 C5.66 6 6.32 6 7 6 C7.33 7.65 7.66 9.3 8 11 C8.66 11 9.32 11 10 11 C10.33 12.32 10.66 13.64 11 15 C11.99 15 12.98 15 14 15 C14.66 16.98 15.32 18.96 16 21 C8.49662317 17.96850177 3.49631382 8.99262763 0 2 C0 1.34 0 0.68 0 0 Z " fill="#DA7EA4" transform="translate(122,390)"/>
<path d="M0 0 C0.33 0 0.66 0 1 0 C1.02578125 1.1859375 1.0515625 2.371875 1.078125 3.59375 C1.36853824 12.73512377 2.12873127 21.20938669 4.71582031 30.00976562 C6.08861451 34.73415647 6.08861451 34.73415647 5 38 C5 37.34 5 36.68 5 36 C4.34 36 3.68 36 3 36 C0.42995456 28.95257981 -0.3838209 22.06187498 -0.75 14.625 C-0.79439209 13.75713867 -0.83878418 12.88927734 -0.88452148 11.99511719 C-1.04943237 7.83565331 -1.10219851 4.05809453 0 0 Z " fill="#E54E8B" transform="translate(119,325)"/>
<path d="M0 0 C0.33 0.99 0.66 1.98 1 3 C0.443125 3.52207031 -0.11375 4.04414063 -0.6875 4.58203125 C-6.56524619 10.25127631 -11.38451292 16.2717014 -16 23 C-16.66 22.67 -17.32 22.34 -18 22 C-12.70675414 13.85654484 -7.04388591 6.72208402 0 0 Z " fill="#E6508C" transform="translate(233,264)"/>
<path d="M0 0 C0 0.66 0 1.32 0 2 C-7.96290513 6.56252942 -15.67438854 9.88864942 -25 10 C-25.66 9.34 -26.32 8.68 -27 8 C-26.36835938 7.84144531 -25.73671875 7.68289063 -25.0859375 7.51953125 C-18.19319071 5.72185521 -11.54290675 3.46554807 -4.87109375 0.98828125 C-2 0 -2 0 0 0 Z " fill="#E8B7CB" transform="translate(261,332)"/>
<path d="M0 0 C0.33 0 0.66 0 1 0 C1.33 6.6 1.66 13.2 2 20 C1.34 19.67 0.68 19.34 0 19 C-0.625 16.4375 -0.625 16.4375 -1 14 C-1.66 14 -2.32 14 -3 14 C-3 15.98 -3 17.96 -3 20 C-3.33 20 -3.66 20 -4 20 C-4.38307318 13.23237384 -3.17688744 7.41787022 -1 1 C-0.67 0.67 -0.34 0.34 0 0 Z " fill="#E3548F" transform="translate(95,210)"/>
<path d="M0 0 C0.66 0 1.32 0 2 0 C2 1.65 2 3.3 2 5 C1.01 5.495 1.01 5.495 0 6 C-2.56473344 12.76156997 -3.54841134 19.82129753 -4 27 C-6 25 -6 25 -6.375 21.6875 C-6.21220217 14.29376526 -3.48956585 6.47613122 0 0 Z " fill="#E08EB3" transform="translate(95,205)"/>
<path d="M0 0 C-0.55945313 0.31710938 -1.11890625 0.63421875 -1.6953125 0.9609375 C-9.48593849 5.49503173 -16.72497324 10.69572977 -24 16 C-24.33 15.34 -24.66 14.68 -25 14 C-24.34 14 -23.68 14 -23 14 C-23 13.34 -23 12.68 -23 12 C-21.5390625 10.7109375 -21.5390625 10.7109375 -19.625 9.375 C-18.99851563 8.92898437 -18.37203125 8.48296875 -17.7265625 8.0234375 C-16 7 -16 7 -14 7 C-14 6.34 -14 5.68 -14 5 C-13.01 5 -12.02 5 -11 5 C-11 4.34 -11 3.68 -11 3 C-4.03571429 -1.41964286 -4.03571429 -1.41964286 0 0 Z " fill="#DA7BA5" transform="translate(244,155)"/>
<path d="M0 0 C3.29164225 4.93746337 3.37848424 10.82727408 2.68359375 16.65234375 C1.4747449 22.5252551 1.4747449 22.5252551 -1 25 C-0.67 16.75 -0.34 8.5 0 0 Z " fill="#EDC3D6" transform="translate(312,91)"/>
<path d="M0 0 C0 3.33156142 -0.45664761 5.06028115 -2 8 C-4.375 9.625 -4.375 9.625 -7 11 C-8.34631825 11.98244845 -9.68441297 12.97676564 -11 14 C-11.33 12.68 -11.66 11.36 -12 10 C-8.04 6.7 -4.08 3.4 0 0 Z " fill="#E8A6C4" transform="translate(161,110)"/>
<path d="M0 0 C0.33 0.99 0.66 1.98 1 3 C0.360625 3.433125 -0.27875 3.86625 -0.9375 4.3125 C-3.26746003 5.91239177 -3.26746003 5.91239177 -4 9 C-7.63 8.01 -11.26 7.02 -15 6 C-12.68117365 3.68117365 -11.18714044 3.31386758 -8.0625 2.4375 C-7.18722656 2.18871094 -6.31195313 1.93992188 -5.41015625 1.68359375 C-4.21712891 1.34521484 -4.21712891 1.34521484 -3 1 C-2.01 0.67 -1.02 0.34 0 0 Z " fill="#E99EBF" transform="translate(208,191)"/>
<path d="M0 0 C6.84970196 0.3044312 12.37144845 3.17294345 18 7 C19.828125 9.19921875 19.828125 9.19921875 21 11 C16.00275241 11 12.17446683 7.9739481 8.4375 4.875 C5.72270382 2.78669525 3.27944023 1.91519262 0 1 C0 0.67 0 0.34 0 0 Z " fill="#EBBFD5" transform="translate(241,184)"/>
<path d="M0 0 C-0.33 1.32 -0.66 2.64 -1 4 C-3.28831672 4.55564871 -5.58080365 5.09414974 -7.875 5.625 C-9.15117187 5.92664063 -10.42734375 6.22828125 -11.7421875 6.5390625 C-12.81726563 6.69117187 -13.89234375 6.84328125 -15 7 C-15.66 6.34 -16.32 5.68 -17 5 C-14.73117913 4.16080602 -12.46022973 3.32848276 -10.1875 2.5 C-9.54490234 2.26152344 -8.90230469 2.02304688 -8.24023438 1.77734375 C-5.35066261 0.72931254 -3.09923939 0 0 0 Z " fill="#EDB7CF" transform="translate(234,69)"/>
<path d="M0 0 C-1.31061591 4.23429756 -2.94356259 8.07407404 -5 12 C-5.99 11.67 -6.98 11.34 -8 11 C-7.39147692 7.45028204 -6.61653196 4.23306391 -5 1 C-2 0 -2 0 0 0 Z " fill="#DE79A5" transform="translate(208,309)"/>
<path d="M0 0 C0.66 0 1.32 0 2 0 C1.37968409 6.57534861 -0.14897283 12.66692592 -2 19 C-2.33 19 -2.66 19 -3 19 C-3.31461385 11.90370975 -3.44572039 6.31715405 0 0 Z " fill="#DB85AB" transform="translate(398,282)"/>
<path d="M0 0 C2.9375 0.375 2.9375 0.375 6 1 C6.33 1.66 6.66 2.32 7 3 C8.97522846 4.04808041 10.97481509 5.0520411 13 6 C13 7.32 13 8.64 13 10 C10.01517153 8.60484422 7.44642111 6.97667625 4.8125 5 C4.11769531 4.484375 3.42289063 3.96875 2.70703125 3.4375 C1 2 1 2 0 0 Z " fill="#DB749F" transform="translate(138,411)"/>
<path d="M0 0 C1.44334819 4.33004457 0.50291297 7.75138066 -1 12 C-2.49537461 14.29913846 -4.0721834 16.02145139 -6 18 C-6.33 17.34 -6.66 16.68 -7 16 C-5.92664301 13.23325418 -4.79739939 10.56805742 -3.5625 7.875 C-3.22412109 7.12089844 -2.88574219 6.36679688 -2.53710938 5.58984375 C-1.69839399 3.72340669 -0.85008607 1.8612857 0 0 Z " fill="#E9B4D0" transform="translate(106,175)"/>
<path d="M0 0 C7.1978611 0.34789662 13.43609636 0.90381904 20 4 C20.33 4.66 20.66 5.32 21 6 C20.35933594 5.86722656 19.71867187 5.73445313 19.05859375 5.59765625 C15.07464119 4.7842412 11.16937163 4.0191226 7.125 3.5625 C3.82039778 2.9676716 2.54773097 2.06796345 0 0 Z " fill="#DF4E88" transform="translate(158,425)"/>
<path d="M0 0 C-1.40398279 4.10110762 -3.37087038 6.98089159 -6.125 10.3125 C-6.84945313 11.19550781 -7.57390625 12.07851563 -8.3203125 12.98828125 C-8.87460937 13.65214844 -9.42890625 14.31601562 -10 15 C-10.99 14.34 -11.98 13.68 -13 13 C-11.625 11.5 -11.625 11.5 -10 10 C-9.34 10 -8.68 10 -8 10 C-7.7525 9.0925 -7.505 8.185 -7.25 7.25 C-5.88970444 3.71323154 -4.21557243 0 0 0 Z " fill="#DA7DA4" transform="translate(372,342)"/>
<path d="M0 0 C0.33 0 0.66 0 1 0 C1.39363688 7.74152536 -0.05789567 14.52058632 -2 22 C-2.33 22 -2.66 22 -3 22 C-3.05398987 19.72942623 -3.09278742 17.45848712 -3.125 15.1875 C-3.14820313 13.92292969 -3.17140625 12.65835938 -3.1953125 11.35546875 C-3 8 -3 8 -1 5 C-0.61500109 3.34450469 -0.27206865 1.6777567 0 0 Z " fill="#E4A5C3" transform="translate(269,222)"/>
<path d="M0 0 C4.18659858 3.82774727 7.37820862 7.94607874 10 13 C10 13.66 10 14.32 10 15 C9.01 15 8.02 15 7 15 C7 13.35 7 11.7 7 10 C5.68 10 4.36 10 3 10 C2.67 7.69 2.34 5.38 2 3 C1.34 3 0.68 3 0 3 C0 2.01 0 1.02 0 0 Z " fill="#EBB5CC" transform="translate(302,76)"/>
<path d="M0 0 C0.99 0.33 1.98 0.66 3 1 C1.37660195 2.70884005 -0.29319053 4.37446717 -2 6 C-2.66 6 -3.32 6 -4 6 C-4 6.66 -4 7.32 -4 8 C-6.5 9.625 -6.5 9.625 -9 11 C-9 9.68 -9 8.36 -9 7 C-8.01 7 -7.02 7 -6 7 C-6.33 6.01 -6.66 5.02 -7 4 C-5.35 3.67 -3.7 3.34 -2 3 C-2 2.34 -2 1.68 -2 1 C-1.34 0.67 -0.68 0.34 0 0 Z " fill="#DC83A7" transform="translate(342,373)"/>
<path d="M0 0 C-0.33 1.65 -0.66 3.3 -1 5 C-2.11375 5.309375 -3.2275 5.61875 -4.375 5.9375 C-7.7945155 6.82326483 -7.7945155 6.82326483 -10 8 C-10.66 7.34 -11.32 6.68 -12 6 C-10.37829621 4.99466333 -8.75252763 3.99588093 -7.125 3 C-5.76761719 2.1646875 -5.76761719 2.1646875 -4.3828125 1.3125 C-2 0 -2 0 0 0 Z " fill="#E9BBCD" transform="translate(286,319)"/>
<path d="M0 0 C0.66 0 1.32 0 2 0 C2.0270043 1.45823212 2.04639787 2.91660675 2.0625 4.375 C2.07410156 5.18710938 2.08570313 5.99921875 2.09765625 6.8359375 C2 9 2 9 1 11 C0.34 11 -0.32 11 -1 11 C-1.33 9.35 -1.66 7.7 -2 6 C-2.99 6 -3.98 6 -5 6 C-3.38405168 3.95880212 -1.7143618 1.95927063 0 0 Z " fill="#DD6296" transform="translate(264,237)"/>
<path d="M0 0 C0.66 0 1.32 0 2 0 C0.38340534 3.41190833 -1.54270105 6.56217535 -3.5625 9.75 C-4.49255859 11.22726562 -4.49255859 11.22726562 -5.44140625 12.734375 C-5.95574219 13.48203125 -6.47007812 14.2296875 -7 15 C-7.33 15 -7.66 15 -8 15 C-8 13.35 -8 11.7 -8 10 C-7.34 10 -6.68 10 -6 10 C-5.7525 9.278125 -5.505 8.55625 -5.25 7.8125 C-3.87730408 4.72393418 -2.27646704 2.48988582 0 0 Z " fill="#DB7BA5" transform="translate(217,293)"/>
<path d="M0 0 C0.66 0.66 1.32 1.32 2 2 C1.43152344 1.96519531 0.86304688 1.93039063 0.27734375 1.89453125 C-5.37433143 1.69639239 -8.93808904 2.52069667 -14 5 C-14.66 5 -15.32 5 -16 5 C-16 4.34 -16 3.68 -16 3 C-11.52151545 -1.01519305 -5.68383728 -0.70475921 0 0 Z " fill="#DF72A1" transform="translate(272,144)"/>
<path d="M0 0 C4.95 0 9.9 0 15 0 C15.33 0.66 15.66 1.32 16 2 C7.585 2.495 7.585 2.495 -1 3 C-0.67 2.01 -0.34 1.02 0 0 Z " fill="#EBC6D8" transform="translate(260,63)"/>
<path d="M0 0 C-3.11553539 2.07702359 -5.39010071 2.74906855 -9 3.625 C-10.5778125 4.01558594 -10.5778125 4.01558594 -12.1875 4.4140625 C-15 5 -15 5 -18 5 C-18 4.34 -18 3.68 -18 3 C-11.88595404 1.14256832 -6.41481258 -0.42765417 0 0 Z " fill="#DA7DA6" transform="translate(254,427)"/>
<path d="M0 0 C-1.41773462 3.54433654 -2.67612238 4.33806119 -6 6 C-7.26804566 8.0335948 -7.26804566 8.0335948 -8 10 C-8.99 10 -9.98 10 -11 10 C-9.73046875 8.53515625 -8.4609375 7.0703125 -7.19140625 5.60546875 C-5.79128769 3.89287029 -5.79128769 3.89287029 -5 1 C-2 0 -2 0 0 0 Z " fill="#DE89AE" transform="translate(230,281)"/>
<path d="M0 0 C0.66 0.33 1.32 0.66 2 1 C1.25 7.625 1.25 7.625 -1 11 C-1.70812814 13.32108669 -2.38024152 15.65377147 -3 18 C-4.32435978 14.02692066 -3.18129186 11.19025432 -2.0625 7.3125 C-1.76956055 6.2596582 -1.76956055 6.2596582 -1.47070312 5.18554688 C-0.98800864 3.45491056 -0.49499154 1.72715934 0 0 Z " fill="#EBB6CE" transform="translate(344,233)"/>
<path d="M0 0 C0.66 0 1.32 0 2 0 C1.49890042 4.38462134 0.01704885 6.8000997 -3 10 C-3.66 10 -4.32 10 -5 10 C-4.49890042 5.61537866 -3.01704885 3.1999003 0 0 Z " fill="#E5A3C1" transform="translate(125,147)"/>
<path d="M0 0 C0.99 0.66 1.98 1.32 3 2 C1.06629769 3.00732399 -0.87210306 4.00563288 -2.8125 5 C-4.43091797 5.8353125 -4.43091797 5.8353125 -6.08203125 6.6875 C-9 8 -9 8 -12 8 C-9.77676227 4.66514341 -8.4208559 3.99450857 -4.875 2.3125 C-3.96492187 1.87550781 -3.05484375 1.43851562 -2.1171875 0.98828125 C-1.06917969 0.49908203 -1.06917969 0.49908203 0 0 Z " fill="#EFA0C3" transform="translate(223,82)"/>
<path d="M0 0 C0.99 0 1.98 0 3 0 C3.50692692 1.5811292 4.00526443 3.16501383 4.5 4.75 C4.7784375 5.63171875 5.056875 6.5134375 5.34375 7.421875 C6 10 6 10 6 14 C3.52813545 11.03653214 2.33751639 8.45958311 1.3125 4.75 C1.06113281 3.85796875 0.80976562 2.9659375 0.55078125 2.046875 C0.36902344 1.37140625 0.18726562 0.6959375 0 0 Z " fill="#DC8EAC" transform="translate(116,377)"/>
<path d="M0 0 C-2.46301423 2.46301423 -4.27360036 2.76766521 -7.625 3.625 C-9.12933594 4.01558594 -9.12933594 4.01558594 -10.6640625 4.4140625 C-11.43492187 4.60742188 -12.20578125 4.80078125 -13 5 C-13.66 4.34 -14.32 3.68 -15 3 C-9.89665983 1.094753 -5.53657294 -0.42589023 0 0 Z " fill="#DE81A9" transform="translate(268,422)"/>
<path d="M0 0 C0 3 0 3 -1 6 C-0.67 6.66 -0.34 7.32 0 8 C-0.66 8.66 -1.32 9.32 -2 10 C-4.475 9.01 -4.475 9.01 -7 8 C-6.02133662 6.85373678 -5.04205413 5.70800212 -4.0625 4.5625 C-3.51722656 3.92441406 -2.97195313 3.28632813 -2.41015625 2.62890625 C-1.63204305 1.73008851 -0.84063472 0.84063472 0 0 Z " fill="#E84B8A" transform="translate(357,346)"/>
<path d="M0 0 C0.33 0 0.66 0 1 0 C1 2.64 1 5.28 1 8 C0.01 8.495 0.01 8.495 -1 9 C-1.09765625 2.84765625 -1.09765625 2.84765625 -1 1 C-0.67 0.67 -0.34 0.34 0 0 Z M-3 3 C-2.34 3.33 -1.68 3.66 -1 4 C-3.25 6.5 -3.25 6.5 -6 9 C-7.32 9 -8.64 9 -10 9 C-5.25 5 -5.25 5 -3 5 C-3 4.34 -3 3.68 -3 3 Z " fill="#E65B93" transform="translate(307,119)"/>
<path d="M0 0 C1.8871875 0.061875 1.8871875 0.061875 3.8125 0.125 C3.4825 1.115 3.1525 2.105 2.8125 3.125 C-3.1275 3.62 -3.1275 3.62 -9.1875 4.125 C-6.15459168 1.09209168 -4.23752936 -0.13893539 0 0 Z " fill="#DC6393" transform="translate(268.1875,418.875)"/>
<path d="M0 0 C0.33 0.66 0.66 1.32 1 2 C-0.87577357 6.06417607 -2.93582393 8.12422643 -7 10 C-7.66 9.67 -8.32 9.34 -9 9 C-6.03 6.03 -3.06 3.06 0 0 Z " fill="#EBC3D5" transform="translate(148,121)"/>
<path d="M0 0 C-1.29009643 0.50403768 -2.58213789 1.00309926 -3.875 1.5 C-4.59429687 1.7784375 -5.31359375 2.056875 -6.0546875 2.34375 C-8 3 -8 3 -10 3 C-10 3.66 -10 4.32 -10 5 C-12.64 5 -15.28 5 -18 5 C-14.72569418 3.25212177 -11.38657595 2.00747118 -7.875 0.8125 C-6.82054687 0.44769531 -5.76609375 0.08289063 -4.6796875 -0.29296875 C-2 -1 -2 -1 0 0 Z " fill="#ECA0C2" transform="translate(248,89)"/>
<path d="M0 0 C0.66 0.33 1.32 0.66 2 1 C1.8125 3.375 1.8125 3.375 1 6 C-1.5625 7.3125 -1.5625 7.3125 -4 8 C-4 6.35 -4 4.7 -4 3 C-2.68 3 -1.36 3 0 3 C0 2.01 0 1.02 0 0 Z " fill="#DD6595" transform="translate(308,396)"/>
<path d="M0 0 C0.66 0 1.32 0 2 0 C2 0.99 2 1.98 2 3 C2.99 3.33 3.98 3.66 5 4 C5 4.66 5 5.32 5 6 C5.66 6 6.32 6 7 6 C7.33 7.32 7.66 8.64 8 10 C6.25 9.9375 6.25 9.9375 4 9 C1.99159505 6.29950956 0 3.44873267 0 0 Z " fill="#D86E9B" transform="translate(122,390)"/>
<path d="M0 0 C0.66 0.33 1.32 0.66 2 1 C0.35 5.62 -1.3 10.24 -3 15 C-4.07478554 11.77564339 -3.93162085 10.71203245 -3.1875 7.5 C-3.01605469 6.7265625 -2.84460938 5.953125 -2.66796875 5.15625 C-2 3 -2 3 0 0 Z " fill="#F985B7" transform="translate(204,302)"/>
<path d="M0 0 C1.65 0.33 3.3 0.66 5 1 C4.07347299 2.17539996 3.13336613 3.34010577 2.1875 4.5 C1.66542969 5.1496875 1.14335937 5.799375 0.60546875 6.46875 C-1 8 -1 8 -4 8 C-3.34 6.68 -2.68 5.36 -2 4 C-1.34 4 -0.68 4 0 4 C0 2.68 0 1.36 0 0 Z " fill="#DC769D" transform="translate(206,177)"/>
<path d="M0 0 C-1.62170379 1.00533667 -3.24747237 2.00411907 -4.875 3 C-6.23238281 3.8353125 -6.23238281 3.8353125 -7.6171875 4.6875 C-10 6 -10 6 -12 6 C-11.34 4.68 -10.68 3.36 -10 2 C-8.68 2 -7.36 2 -6 2 C-6 1.34 -6 0.68 -6 0 C-3.50907189 -1.24546405 -2.58919267 -0.7767578 0 0 Z " fill="#D887AD" transform="translate(304,405)"/>
<path d="M0 0 C0 4.03066816 -1.67283027 5.78303008 -4 9 C-4.66 9.66 -5.32 10.32 -6 11 C-6.99 10.67 -7.98 10.34 -9 10 C-6.03 6.7 -3.06 3.4 0 0 Z " fill="#E7548F" transform="translate(371,330)"/>
<path d="M0 0 C1.5 1.25 1.5 1.25 3 3 C3 4.32 3 5.64 3 7 C1.35 7.66 -0.3 8.32 -2 9 C-1.125 1.125 -1.125 1.125 0 0 Z " fill="#DD5790" transform="translate(206,302)"/>
<path d="M0 0 C4.28806873 0.47645208 6.26647487 1.65902484 9 5 C9 5.66 9 6.32 9 7 C5.18315774 5.44499019 2.80804268 2.96404505 0 0 Z " fill="#DE7EA7" transform="translate(105,275)"/>
<path d="M0 0 C0.66 0.33 1.32 0.66 2 1 C-0.31 3.64 -2.62 6.28 -5 9 C-5.33 8.01 -5.66 7.02 -6 6 C-4 4 -2 2 0 0 Z " fill="#FD86B9" transform="translate(360,340)"/>
<path d="M0 0 C0.66 0 1.32 0 2 0 C2 1.65 2 3.3 2 5 C1.34 5 0.68 5 0 5 C-0.33 6.65 -0.66 8.3 -1 10 C-1.66 10 -2.32 10 -3 10 C-2.25 3.375 -2.25 3.375 0 0 Z " fill="#DD8AAC" transform="translate(120,314)"/>
<path d="M0 0 C-0.95857375 3.22429352 -1.62763128 4.72562304 -4.375 6.75 C-6.62276808 7.82036575 -8.56339564 8.54877697 -11 9 C-9.33333333 7.33333333 -7.66666667 5.66666667 -6 4 C-5.278125 3.236875 -4.55625 2.47375 -3.8125 1.6875 C-2 0 -2 0 0 0 Z " fill="#E3528D" transform="translate(259,244)"/>
<path d="M0 0 C0.66 0 1.32 0 2 0 C2.39253254 4.44870215 1.15305957 7.14243493 -1 11 C-1.66 11 -2.32 11 -3 11 C-2.01 7.37 -1.02 3.74 0 0 Z " fill="#E7B6CA" transform="translate(98,194)"/>
<path d="M0 0 C0 0.99 0 1.98 0 3 C-0.66 3.66 -1.32 4.32 -2 5 C-4.72869407 4.96712417 -7.2966618 4.43602229 -10 4 C-7.80202597 1.80202597 -6.82453855 1.54102483 -3.875 0.875 C-2.59625 0.58625 -1.3175 0.2975 0 0 Z " fill="#EBACC8" transform="translate(203,193)"/>
<path d="M0 0 C-2.22825644 2.22825644 -3.65761628 2.69239369 -6.625 3.625 C-7.44226563 3.88539063 -8.25953125 4.14578125 -9.1015625 4.4140625 C-9.72804687 4.60742188 -10.35453125 4.80078125 -11 5 C-11.33 4.34 -11.66 3.68 -12 3 C-10.5682384 2.30062798 -9.12932968 1.61587282 -7.6875 0.9375 C-6.48673828 0.36322266 -6.48673828 0.36322266 -5.26171875 -0.22265625 C-3 -1 -3 -1 0 0 Z " fill="#DF83A7" transform="translate(255,149)"/>
<path d="M0 0 C4.60209225 -0.17700355 6.78370866 -0.10814567 11 2 C6.545 2.495 6.545 2.495 2 3 C1.34 2.01 0.68 1.02 0 0 Z " fill="#DA6B9B" transform="translate(184,432)"/>
<path d="M0 0 C1.04449911 3.13349732 0.93423645 3.98968256 0 7 C-0.66 7 -1.32 7 -2 7 C-2 7.66 -2 8.32 -2 9 C-2.66 9 -3.32 9 -4 9 C-3.71848913 7.68528432 -3.42446661 6.37324233 -3.125 5.0625 C-2.96257812 4.33160156 -2.80015625 3.60070312 -2.6328125 2.84765625 C-2 1 -2 1 0 0 Z " fill="#E5AAC6" transform="translate(126,298)"/>
<path d="M0 0 C0.66 0 1.32 0 2 0 C1.34 4.29 0.68 8.58 0 13 C-0.33 13 -0.66 13 -1 13 C-1.02696365 11.20841511 -1.04637917 9.41671527 -1.0625 7.625 C-1.07410156 6.62726563 -1.08570313 5.62953125 -1.09765625 4.6015625 C-1 2 -1 2 0 0 Z " fill="#E9B4CA" transform="translate(406,247)"/>
<path d="M0 0 C1.32 0 2.64 0 4 0 C4 0.66 4 1.32 4 2 C3.34 2 2.68 2 2 2 C2 3.65 2 5.3 2 7 C1.01 7 0.02 7 -1 7 C-0.67 4.69 -0.34 2.38 0 0 Z " fill="#DE4B86" transform="translate(194,187)"/>
<path d="M0 0 C4.30840713 1.07710178 7.63576723 2.03947516 11 5 C5.95749572 5 4.22094347 3.59750368 0 1 C0 0.67 0 0.34 0 0 Z " fill="#DE8CAF" transform="translate(114,282)"/>
<path d="M0 0 C1.9375 0.6875 1.9375 0.6875 4 2 C4.75 4.625 4.75 4.625 5 7 C4.01 7 3.02 7 2 7 C0.5393715 4.35261084 0 3.10551666 0 0 Z " fill="#E16DA1" transform="translate(101,267)"/>
<path d="M0 0 C0.95651196 2.58258228 1.03620881 3.8650399 0.3125 6.5625 C-1.12035293 9.22351258 -2.47085828 10.39821025 -5 12 C-3.68938409 7.76570244 -2.05643741 3.92592596 0 0 Z " fill="#E5B5CE" transform="translate(337,260)"/>
<path d="M0 0 C0 0.66 0 1.32 0 2 C-4.43076923 4.09230769 -4.43076923 4.09230769 -7.3125 3.625 C-7.869375 3.41875 -8.42625 3.2125 -9 3 C-5.92807025 0.26939578 -4.09590633 -0.34132553 0 0 Z " fill="#EDB7CC" transform="translate(364,209)"/>
<path d="M0 0 C1.98 0.66 3.96 1.32 6 2 C5.67 3.32 5.34 4.64 5 6 C3.68 5.67 2.36 5.34 1 5 C0.67 3.35 0.34 1.7 0 0 Z " fill="#EB9BBE" transform="translate(256,193)"/>
<path d="M0 0 C-0.33 1.32 -0.66 2.64 -1 4 C-3.31 4 -5.62 4 -8 4 C-5.29881977 1.17603885 -4.05589853 0 0 0 Z " fill="#E6A9C2" transform="translate(234,69)"/>
<path d="M0 0 C-0.33 0.99 -0.66 1.98 -1 3 C-3.31 3 -5.62 3 -8 3 C-8.33 2.34 -8.66 1.68 -9 1 C-5.8035914 -0.06546953 -3.34252724 -0.07427838 0 0 Z " fill="#E9ABC5" transform="translate(259,64)"/>
<path d="M0 0 C-0.99 1.485 -0.99 1.485 -2 3 C-3.9453125 3.29296875 -3.9453125 3.29296875 -6.125 3.1875 C-7.40375 3.125625 -8.6825 3.06375 -10 3 C-7.28464405 0.28464405 -3.67870689 -1.83935344 0 0 Z " fill="#E8528F" transform="translate(282,400)"/>
<path d="M0 0 C0.66 0.33 1.32 0.66 2 1 C-1.44615385 5.8 -1.44615385 5.8 -4.25 6.8125 C-5.11625 6.9053125 -5.11625 6.9053125 -6 7 C-4.60667426 3.63279613 -3.0210714 2.0140476 0 0 Z " fill="#E7B8CF" transform="translate(173,100)"/>
<path d="M0 0 C2.02045442 0.60183749 4.02111039 1.27306096 6 2 C6.33 2.66 6.66 3.32 7 4 C4.69 4 2.38 4 0 4 C0 2.68 0 1.36 0 0 Z " fill="#E7B5CB" transform="translate(291,69)"/>
<path d="M0 0 C3.55780196 0.60990891 6.6828589 1.5783681 10 3 C10 3.33 10 3.66 10 4 C7.69 4 5.38 4 3 4 C3 3.34 3 2.68 3 2 C2.01 2 1.02 2 0 2 C0 1.34 0 0.68 0 0 Z " fill="#E8B6CC" transform="translate(281,65)"/>
<path d="M0 0 C1.32 0 2.64 0 4 0 C3.6875 1.875 3.6875 1.875 3 4 C2.01 4.66 1.02 5.32 0 6 C-1 3 -1 3 0 0 Z " fill="#E16998" transform="translate(215,169)"/>
<path d="M0 0 C0.66 0 1.32 0 2 0 C1.65120368 3.25543229 0.97866739 4.01873107 -1.5625 6.25 C-2.366875 6.8275 -3.17125 7.405 -4 8 C-3.6875 6.0625 -3.6875 6.0625 -3 4 C-2.01 3.67 -1.02 3.34 0 3 C0 2.01 0 1.02 0 0 Z " fill="#D06993" transform="translate(349,365)"/>
<path d="M0 0 C0.66 0.33 1.32 0.66 2 1 C2 1.99 2 2.98 2 4 C1.34 4 0.68 4 0 4 C0 6.64 0 9.28 0 12 C-0.33 12 -0.66 12 -1 12 C-1.02687279 10.18757948 -1.04633715 8.37504767 -1.0625 6.5625 C-1.07410156 5.55316406 -1.08570313 4.54382813 -1.09765625 3.50390625 C-1 1 -1 1 0 0 Z " fill="#E39BBB" transform="translate(200,320)"/>
<path d="M0 0 C-0.99843096 2.99529289 -1.51384442 4.15840327 -4 6 C-6.1875 5.6875 -6.1875 5.6875 -8 5 C-2.25 0 -2.25 0 0 0 Z " fill="#E8B7D0" transform="translate(301,308)"/>
<path d="M0 0 C2.64 1.98 5.28 3.96 8 6 C6.68 6.33 5.36 6.66 4 7 C3.67 6.01 3.34 5.02 3 4 C2.34 4 1.68 4 1 4 C0.67 2.68 0.34 1.36 0 0 Z " fill="#E54E8B" transform="translate(112,256)"/>
<path d="M0 0 C0.66 0.33 1.32 0.66 2 1 C-0.35380297 4.92300495 -2.64464931 5.83857315 -7 7 C-4.66666667 4.66666667 -2.33333333 2.33333333 0 0 Z " fill="#E75691" transform="translate(246,253)"/>
<path d="M0 0 C0.66 0.66 1.32 1.32 2 2 C1.01 4.64 0.02 7.28 -1 10 C-1.66 10 -2.32 10 -3 10 C-2.39009109 6.44219804 -1.4216319 3.3171411 0 0 Z " fill="#E6B6C7" transform="translate(348,221)"/>
<path d="M0 0 C0.33 0.66 0.66 1.32 1 2 C-0.4375 4.625 -0.4375 4.625 -2 7 C-2.99 6.67 -3.98 6.34 -5 6 C-3.35 4.02 -1.7 2.04 0 0 Z " fill="#EABFD3" transform="translate(354,213)"/>
<path d="M0 0 C0.75 1.6875 0.75 1.6875 1 4 C-0.8125 6.75 -0.8125 6.75 -3 9 C-3.66 9 -4.32 9 -5 9 C-3.50163895 5.88801935 -1.80066242 2.9465385 0 0 Z " fill="#E9BBD1" transform="translate(119,154)"/>
<path d="M0 0 C6.75 0.875 6.75 0.875 9 2 C9 2.66 9 3.32 9 4 C6.03 3.01 3.06 2.02 0 1 C0 0.67 0 0.34 0 0 Z " fill="#DE91AE" transform="translate(158,425)"/>
<path d="M0 0 C0.33 0.99 0.66 1.98 1 3 C0.360625 3.103125 -0.27875 3.20625 -0.9375 3.3125 C-1.618125 3.539375 -2.29875 3.76625 -3 4 C-3.33 4.99 -3.66 5.98 -4 7 C-4.99 6.67 -5.98 6.34 -7 6 C-6.34 6 -5.68 6 -5 6 C-4.67 5.01 -4.34 4.02 -4 3 C-1.9375 1.3125 -1.9375 1.3125 0 0 Z " fill="#E3548E" transform="translate(349,354)"/>
<path d="M0 0 C-0.33 1.65 -0.66 3.3 -1 5 C-2.32 4.34 -3.64 3.68 -5 3 C-2.25 0 -2.25 0 0 0 Z " fill="#E9A9C5" transform="translate(286,319)"/>
<path d="M0 0 C1.42944945 2.35438733 2.08661261 3.48032433 1.625 6.25 C1.41875 6.8275 1.2125 7.405 1 8 C0.01 8 -0.98 8 -2 8 C-1.34 5.36 -0.68 2.72 0 0 Z " fill="#E8AAC8" transform="translate(121,307)"/>
<path d="M0 0 C0.66 0.33 1.32 0.66 2 1 C1.3125 2.9375 1.3125 2.9375 0 5 C-2.625 5.75 -2.625 5.75 -5 6 C-4.34 5.67 -3.68 5.34 -3 5 C-3 4.34 -3 3.68 -3 3 C-2.34 3 -1.68 3 -1 3 C-0.67 2.01 -0.34 1.02 0 0 Z " fill="#ECBFD4" transform="translate(311,297)"/>
<path d="M0 0 C-2.93127462 1.95418308 -4.55834679 2.64700993 -8 3 C-8.66 2.34 -9.32 1.68 -10 1 C-3.71428571 -1.42857143 -3.71428571 -1.42857143 0 0 Z " fill="#E6B6CC" transform="translate(226,186)"/>
<path d="M0 0 C-1.4638611 4.39158329 -3.97831338 4.87947433 -8 7 C-8 6.34 -8 5.68 -8 5 C-7.34 5 -6.68 5 -6 5 C-6 4.34 -6 3.68 -6 3 C-2.53846154 0 -2.53846154 0 0 0 Z " fill="#DD86AC" transform="translate(227,164)"/>
<path d="M0 0 C0.66 0 1.32 0 2 0 C2 3.3 2 6.6 2 10 C1.67 10 1.34 10 1 10 C1 8.35 1 6.7 1 5 C0.34 5 -0.32 5 -1 5 C-0.67 3.35 -0.34 1.7 0 0 Z " fill="#E9A1C1" transform="translate(310,91)"/>
<path d="M0 0 C-1.8125 2 -1.8125 2 -4 4 C-4.99 4 -5.98 4 -7 4 C-7 3.01 -7 2.02 -7 1 C-4.53721199 -0.231394 -2.7204945 -0.07159196 0 0 Z " fill="#E6A6C3" transform="translate(210,80)"/>
</svg>
